<?xml version="1.0" standalone="no"?>
<svg xmlns:xlink="http://www.w3.org/1999/xlink" id="wave" style="transform:rotate(0deg); transition: 0.3s" viewBox="0 0 1440 490" version="1.1" xmlns="http://www.w3.org/2000/svg"><defs><linearGradient id="sw-gradient-0" x1="0" x2="0" y1="1" y2="0"><stop stop-color="rgba(3.15, 0.8, 25.472, 1)" offset="0%"/><stop stop-color="rgba(255, 255, 255, 1)" offset="100%"/></linearGradient></defs><path style="transform:translate(0, 0px); opacity:1" fill="url(#sw-gradient-0)" d="M0,196L21.8,179.7C43.6,163,87,131,131,155.2C174.5,180,218,261,262,277.7C305.5,294,349,245,393,228.7C436.4,212,480,229,524,253.2C567.3,278,611,310,655,343C698.2,376,742,408,785,424.7C829.1,441,873,441,916,367.5C960,294,1004,147,1047,147C1090.9,147,1135,294,1178,359.3C1221.8,425,1265,408,1309,375.7C1352.7,343,1396,294,1440,245C1483.6,196,1527,147,1571,163.3C1614.5,180,1658,261,1702,294C1745.5,327,1789,310,1833,269.5C1876.4,229,1920,163,1964,163.3C2007.3,163,2051,229,2095,236.8C2138.2,245,2182,196,2225,155.2C2269.1,114,2313,82,2356,73.5C2400,65,2444,82,2487,114.3C2530.9,147,2575,196,2618,220.5C2661.8,245,2705,245,2749,277.7C2792.7,310,2836,376,2880,367.5C2923.6,359,2967,278,3011,277.7C3054.5,278,3098,359,3120,400.2L3141.8,441L3141.8,490L3120,490C3098.2,490,3055,490,3011,490C2967.3,490,2924,490,2880,490C2836.4,490,2793,490,2749,490C2705.5,490,2662,490,2618,490C2574.5,490,2531,490,2487,490C2443.6,490,2400,490,2356,490C2312.7,490,2269,490,2225,490C2181.8,490,2138,490,2095,490C2050.9,490,2007,490,1964,490C1920,490,1876,490,1833,490C1789.1,490,1745,490,1702,490C1658.2,490,1615,490,1571,490C1527.3,490,1484,490,1440,490C1396.4,490,1353,490,1309,490C1265.5,490,1222,490,1178,490C1134.5,490,1091,490,1047,490C1003.6,490,960,490,916,490C872.7,490,829,490,785,490C741.8,490,698,490,655,490C610.9,490,567,490,524,490C480,490,436,490,393,490C349.1,490,305,490,262,490C218.2,490,175,490,131,490C87.3,490,44,490,22,490L0,490Z"/></svg>